<?xml version="1.0" encoding="UTF-8"?><svg id="Capa_2" xmlns="http://www.w3.org/2000/svg" viewBox="0 0 622.22 622.22"><defs><style>.cls-1{fill:#fff;}</style></defs><g id="Capa_1-2"><g><circle cx="311.11" cy="311.11" r="311.11"/><path class="cls-1" d="M425.95,368.98c-13.05-22.74,9.4-60.34,50.17-84,8.61-4.99,17.35-8.97,25.9-11.9-16.25-70.06-84.88-121.28-164.9-121.28V457.73c60.86,0,115.12-29.38,144.77-74.22-25.53,5.21-47.34,.41-55.94-14.54Zm-11.14-141.27c0-8.56,6.92-15.52,15.44-15.52s15.45,6.96,15.45,15.52-6.92,15.53-15.45,15.53-15.44-6.96-15.44-15.53Zm-269.72,79.74v150.58h165.12V151.8c-91.21,0-165.12,69.67-165.12,155.65Z"/></g></g></svg>