<?xml version="1.0" encoding="UTF-8"?><svg id="Capa_2" xmlns="http://www.w3.org/2000/svg" viewBox="0 0 849.99 196.48"><defs><style>.cls-1{fill:#fff;}</style></defs><g id="Capa_1-2"><g><g><path class="cls-1" d="M294.28,34.03h14.12v115.28h77.64v12.94h-91.76V34.03Z"/><path class="cls-1" d="M387.92,98.14c0-38.43,28.23-66.66,68.23-66.66s68.23,28.23,68.23,66.66-28.23,66.66-68.23,66.66-68.23-28.23-68.23-66.66Zm122.34,0c0-30.98-22.15-53.72-54.11-53.72s-54.11,22.74-54.11,53.72,22.15,53.72,54.11,53.72,54.11-22.74,54.11-53.72Z"/><path class="cls-1" d="M548.43,118.1V33.01h14.12V118.1c0,21.76,12.74,32.74,29.8,32.74s29.8-11.57,29.8-32.74V33.01h14.12V118.1c0,21.17,12.55,32.74,29.8,32.74s29.8-10.98,29.8-32.74V33.01h14.12V118.1c0,30.39-18.63,45.68-42.94,45.68-17.65,0-31.37-8.43-37.84-23.92-6.47,15.49-20.19,23.92-37.84,23.92-24.31,0-42.94-15.29-42.94-45.68Z"/><path class="cls-1" d="M736.08,34.03h45.88c44.31,0,68.03,25.68,68.03,64.11s-23.72,64.11-68.03,64.11h-45.88V34.03Zm45.88,115.28c36.27,0,53.92-20.39,53.92-51.17s-17.64-51.17-53.92-51.17h-31.76v102.34h31.76Z"/><polygon class="cls-1" points="507.08 88.71 506.46 89.79 507.69 89.79 507.08 88.71"/></g><path class="cls-1" d="M180.2,139.34c-8.37-14.59,6.03-38.71,32.19-53.89,5.53-3.2,11.13-5.75,16.62-7.63C218.58,32.86,174.55,0,123.21,0V196.29c39.05,0,73.86-18.85,92.89-47.62-16.38,3.34-30.37,.26-35.89-9.33Zm-7.15-90.64c0-5.49,4.44-9.96,9.91-9.96s9.92,4.46,9.92,9.96-4.44,9.97-9.92,9.97-9.91-4.46-9.91-9.97ZM0,99.86v96.61H105.94V0C47.42,0,0,44.7,0,99.86Z"/></g></g></svg>